# 3ds Max Wavefront OBJ Exporter v0.97b - (c)2007 guruware
# File Created: 08.01.2017 14:19:27

#
# object Room2
#

v  82.1724 18.5350 -15.2175
v  81.9545 17.7316 -13.7926
v  83.3345 22.8186 -8.6911
v  79.1417 7.3643 14.3555
v  79.6805 9.3505 12.9465
v  78.1816 3.8252 7.8566
v  82.1724 18.5350 14.4191
v  81.9545 17.7316 12.9942
v  83.3345 22.8186 7.8927
v  80.9569 -0.0000 7.5715
v  77.1438 -0.0000 7.5715
v  84.8872 3.8252 7.8566
v  79.1417 7.3643 -15.1539
v  77.1438 0.0000 -8.3699
v  78.1816 3.8252 -8.6550
v  79.6805 9.3505 -13.7449
v  84.0119 25.3151 7.6196
v  82.9548 7.3643 14.3555
v  85.9856 18.5350 -15.2175
v  84.0119 25.3151 -8.4180
v  85.9856 18.5350 14.4191
v  87.8250 25.3151 7.6196
v  87.8250 25.3151 -8.4180
v  80.9569 0.0000 -8.3699
v  82.9548 7.3643 -15.1539
v  88.6601 17.7316 12.9942
v  86.3862 9.3505 12.9465
v  88.6601 17.7316 -13.7926
v  90.0402 22.8186 7.8927
v  84.8872 3.8252 -8.6550
v  86.3862 9.3505 -13.7449
v  93.2886 34.9125 -80.9021
v  93.2886 34.9125 80.2021
v  90.0402 22.8186 -8.6911
v  83.8167 0.0000 -8.3699
v  80.9560 34.9125 87.2798
v  90.4289 34.9125 77.6354
v  83.7867 -0.0000 80.3835
v  83.6908 34.9125 90.1820
v  81.0287 34.9125 -87.8831
v  90.4289 34.9125 -78.0839
v  80.9367 0.0000 -78.0858
v  83.7396 0.0000 -81.0784
v  83.7011 34.9125 -90.8454
v  -10.4572 22.8186 86.8946
v  -88.8194 34.9125 90.1820
v  80.9373 -0.0000 77.6393
v  -86.1723 34.9125 87.1742
v  -98.4967 34.9125 80.2021
v  -88.9367 -0.0000 80.3840
v  -86.1751 34.9125 -88.1637
v  -98.4967 34.9125 -80.9021
v  -95.6370 34.9125 -78.0839
v  -86.1823 0.0000 -78.2384
v  -89.0213 0.0000 -81.0774
v  -89.0256 34.9125 -90.8454
v  -16.9200 7.3643 75.9961
v  -15.5110 9.3505 76.5350
v  -10.4211 3.8252 75.0360
v  12.6530 18.5350 79.0268
v  11.2281 17.7316 78.8089
v  6.1267 22.8186 80.1889
v  -16.9835 18.5350 79.0268
v  -15.5587 17.7316 78.8089
v  -10.4572 22.8186 80.1889
v  -10.1359 -0.0000 77.8113
v  -10.1359 -0.0000 73.9982
v  -10.4211 3.8252 81.7416
v  12.5894 7.3643 75.9961
v  5.8054 -0.0000 73.9982
v  6.0905 3.8252 75.0360
v  11.1804 9.3505 76.5350
v  -10.1841 25.3151 80.8663
v  5.8536 25.3151 80.8663
v  -16.9199 7.3643 79.8092
v  12.6530 18.5350 82.8400
v  -16.9835 18.5350 82.8400
v  -10.1841 25.3151 84.6794
v  5.8536 25.3151 84.6794
v  5.8054 -0.0000 77.8113
v  12.5894 7.3643 79.8092
v  -15.5587 17.7316 85.5145
v  -15.5110 9.3505 83.2406
v  11.2281 17.7316 85.5145
v  6.0905 3.8252 81.7416
v  11.1804 9.3505 83.2406
v  6.1267 22.8186 86.8946
v  5.8054 -0.0000 80.6711
v  -86.1192 -0.0000 77.5887
v  -95.6370 34.9125 77.6354
v  -10.1359 -0.0000 80.6711
v  83.8167 -0.0000 7.5715
# 92 vertices

vn -0.9651 0.2618 0.0000
vn 0.0000 0.0743 -0.9972
vn 0.0000 -0.0057 1.0000
vn 0.0000 0.7081 -0.7061
vn 0.0000 -0.6775 0.7355
vn 0.0000 0.7081 0.7061
vn 0.0000 1.0000 0.0000
vn 0.0000 -0.6775 -0.7355
vn 0.0000 -0.0057 -1.0000
vn 0.0000 0.0057 -1.0000
vn 0.0000 -0.7081 0.7061
vn 0.0000 -0.7081 -0.7061
vn 0.0000 0.6775 0.7355
vn 0.0000 0.0057 1.0000
vn 0.0000 0.6775 -0.7355
vn 0.9658 -0.2594 -0.0000
vn 0.0000 -1.0000 -0.0000
vn 0.0000 0.0743 0.9972
vn 0.7078 -0.1891 0.6807
vn -0.7082 0.1925 0.6793
vn 0.7068 -0.1899 -0.6815
vn 0.0000 -0.2623 0.9650
vn -0.7004 0.1903 -0.6879
vn -0.7049 -0.1895 0.6835
vn 0.7157 0.1908 0.6718
vn -0.7110 -0.1896 -0.6772
vn 0.0000 0.2618 -0.9651
vn 0.9972 0.0743 0.0000
vn -1.0000 -0.0057 -0.0000
vn 0.7061 0.7081 0.0000
vn -0.7355 -0.6775 -0.0000
vn -0.7061 0.7081 0.0000
vn 0.7355 -0.6775 -0.0000
vn 1.0000 -0.0057 -0.0000
vn 1.0000 0.0057 0.0000
vn -0.7061 -0.7081 -0.0000
vn 0.7061 -0.7081 -0.0000
vn -0.7355 0.6775 0.0000
vn -1.0000 0.0057 0.0000
vn 0.7355 0.6775 0.0000
vn -0.9972 0.0743 0.0000
vn 0.0006 0.2571 -0.9664
vn 0.6968 0.1909 -0.6914
vn -0.9645 -0.2641 0.0005
vn -0.0009 0.2735 0.9619
vn 0.0000 -0.2694 -0.9630
vn 0.9648 0.2630 0.0000
vn 0.9628 -0.2702 -0.0097
vn 0.9628 -0.2702 0.0097
vn 0.9641 -0.2655 -0.0010
vn 0.9642 -0.2652 0.0004
vn 0.9651 -0.2619 -0.0016
vn 0.9651 -0.2619 0.0009
vn 0.9657 -0.2598 -0.0021
vn 0.9654 -0.2607 0.0012
vn 0.9646 -0.2638 -0.0008
vn 0.9649 -0.2626 0.0006
vn 0.0000 -0.0000 1.0000
vn 0.0097 -0.2702 0.9628
vn -0.0097 -0.2702 0.9628
vn 0.0036 -0.2669 0.9637
vn -0.0035 -0.2669 0.9637
vn 0.0043 -0.2619 0.9651
vn -0.0042 -0.2619 0.9651
vn 0.0057 -0.2565 0.9665
vn -0.0056 -0.2566 0.9665
vn 0.0013 -0.2702 0.9628
vn -0.0013 -0.2702 0.9628
vn 0.0028 0.2643 -0.9644
vn -0.0022 0.2637 -0.9646
vn 0.0031 0.2619 -0.9651
vn -0.0024 0.2619 -0.9651
vn 0.0043 0.2579 -0.9662
vn -0.0033 0.2587 -0.9660
vn 0.0018 0.2648 -0.9643
vn -0.0006 0.2662 -0.9639
vn 0.0000 0.2516 -0.9678
vn -0.9651 -0.2619 -0.0000
vn -0.0016 0.2702 0.9628
vn -0.9651 0.2621 -0.0003
vn -0.9650 0.2621 0.0003
vn -0.9651 0.2618 -0.0003
vn -0.9651 0.2618 0.0003
vn -0.9652 0.2614 -0.0004
vn -0.9652 0.2614 0.0004
vn -0.9650 0.2623 -0.0001
vn -0.9650 0.2624 0.0001
vn 0.9652 0.2614 -0.0004
# 88 vertex normals

vt 0.2941 0.5365 0.0000
vt 0.2906 0.5299 0.0000
vt 0.3127 0.5063 0.0000
vt 0.2455 0.3999 0.0000
vt 0.2541 0.4064 0.0000
vt 0.2300 0.4299 0.0000
vt 0.2941 0.3996 0.0000
vt 0.2906 0.4062 0.0000
vt 0.3127 0.4297 0.0000
vt 0.4193 0.3549 0.0000
vt 0.4232 0.3687 0.0000
vt 0.4004 0.3442 0.0000
vt 0.2455 0.5362 0.0000
vt 0.2134 0.5048 0.0000
vt 0.2300 0.5062 0.0000
vt 0.2541 0.5297 0.0000
vt 0.3236 0.4310 0.0000
vt 0.1882 0.4333 0.0000
vt 0.1282 0.4339 0.0000
vt 0.1333 0.4160 0.0000
vt 0.8749 0.3690 0.0000
vt 0.8709 0.3552 0.0000
vt 0.9039 0.3545 0.0000
vt 0.0849 0.4333 0.0000
vt 0.0900 0.4155 0.0000
vt 0.5840 0.3548 0.0000
vt 0.6122 0.3500 0.0000
vt 0.6109 0.3642 0.0000
vt 0.5827 0.3690 0.0000
vt 0.5177 0.3642 0.0000
vt 0.1457 0.3744 0.0000
vt 0.1400 0.3567 0.0000
vt 0.1772 0.3567 0.0000
vt 0.8290 0.3683 0.0000
vt 0.8251 0.3545 0.0000
vt 0.3463 0.3685 0.0000
vt 0.3394 0.3442 0.0000
vt 0.3739 0.3447 0.0000
vt 0.6191 0.3444 0.0000
vt 0.6425 0.3448 0.0000
vt 0.6355 0.3690 0.0000
vt 0.1121 0.4390 0.0000
vt 0.1143 0.4713 0.0000
vt 0.0871 0.4662 0.0000
vt 0.0927 0.3972 0.0000
vt 0.0849 0.3725 0.0000
vt 0.1201 0.3725 0.0000
vt 0.6773 0.3444 0.0000
vt 0.6703 0.3687 0.0000
vt 0.3807 0.3690 0.0000
vt 0.7519 0.3136 0.0000
vt 0.6401 0.3280 0.0000
vt 0.8429 0.3280 0.0000
vt 0.2013 0.4662 0.0000
vt 0.1455 0.3386 0.0000
vt 0.1400 0.3205 0.0000
vt 0.1751 0.3205 0.0000
vt 0.9642 0.0906 0.0000
vt 0.9264 0.0290 0.0000
vt 0.9127 0.0433 0.0000
vt 0.8432 0.2865 0.0000
vt 0.8555 0.3258 0.0000
vt 0.0660 0.0290 0.0000
vt 0.0287 0.0902 0.0000
vt 0.0810 0.0433 0.0000
vt 0.2309 0.8976 0.0000
vt 0.1657 0.8976 0.0000
vt 0.1675 0.9172 0.0000
vt 0.6399 0.2865 0.0000
vt 0.6276 0.3258 0.0000
vt 0.7512 0.2552 0.0000
vt 0.6327 0.2696 0.0000
vt 0.8498 0.2696 0.0000
vt 0.2309 0.5858 0.0000
vt 0.1675 0.5665 0.0000
vt 0.1657 0.5858 0.0000
vt 0.9636 0.9248 0.0000
vt 0.9264 0.9863 0.0000
vt 0.9797 0.9380 0.0000
vt 0.8499 0.2281 0.0000
vt 0.8620 0.2674 0.0000
vt 0.0272 0.9248 0.0000
vt 0.0660 0.9863 0.0000
vt 0.0810 0.9720 0.0000
vt 0.5049 0.2076 0.0000
vt 0.5315 0.1237 0.0000
vt 0.5044 0.1283 0.0000
vt 0.6246 0.2129 0.0000
vt 0.6246 0.1657 0.0000
vt 0.6093 0.1644 0.0000
vt 0.2462 0.3999 0.0000
vt 0.2548 0.4064 0.0000
vt 0.2307 0.4299 0.0000
vt 0.2948 0.5364 0.0000
vt 0.2913 0.5298 0.0000
vt 0.3134 0.5063 0.0000
vt 0.0128 0.0769 0.0000
vt 0.0128 0.9390 0.0000
vt 0.2948 0.3996 0.0000
vt 0.2913 0.4062 0.0000
vt 0.3134 0.4297 0.0000
vt 0.1607 0.3386 0.0000
vt 0.1807 0.3386 0.0000
vt 0.2462 0.5361 0.0000
vt 0.2141 0.5048 0.0000
vt 0.2307 0.5061 0.0000
vt 0.2548 0.5296 0.0000
vt 0.3243 0.4310 0.0000
vt 0.3243 0.5050 0.0000
vt 0.7793 0.3552 0.0000
vt 0.8251 0.3544 0.0000
vt 0.8212 0.3683 0.0000
vt 0.4244 0.3642 0.0000
vt 0.4232 0.3500 0.0000
vt 0.4514 0.3548 0.0000
vt 0.1828 0.3744 0.0000
vt 0.1772 0.3921 0.0000
vt 0.7462 0.3544 0.0000
vt 0.7754 0.3690 0.0000
vt 0.4526 0.3690 0.0000
vt 0.1879 0.3972 0.0000
vt 0.1931 0.4150 0.0000
vt 0.1500 0.4155 0.0000
vt 0.1449 0.3977 0.0000
vt 0.0900 0.4150 0.0000
vt 0.7122 0.3447 0.0000
vt 0.7192 0.3690 0.0000
vt 0.6843 0.3687 0.0000
vt 0.1740 0.4764 0.0000
vt 0.2012 0.4713 0.0000
vt 0.1990 0.5037 0.0000
vt 0.7353 0.3444 0.0000
vt 0.7423 0.3687 0.0000
vt 0.2981 0.3690 0.0000
vt 0.2715 0.3685 0.0000
vt 0.2784 0.3442 0.0000
vt 0.3325 0.3685 0.0000
vt 0.3049 0.3447 0.0000
vt 0.0928 0.3479 0.0000
vt 0.1280 0.3479 0.0000
vt 0.1718 0.5088 0.0000
vt 0.0849 0.5037 0.0000
vt 0.0871 0.4713 0.0000
vt 0.2556 0.3687 0.0000
vt 0.2624 0.3445 0.0000
vt 0.0986 0.7597 0.0000
vt 0.0806 0.5755 0.0000
vt 0.0806 0.9100 0.0000
vt 0.1459 0.5756 0.0000
vt 0.0826 0.5566 0.0000
vt 0.9797 0.0769 0.0000
vt 0.8720 0.1644 0.0000
vt 0.8725 0.2117 0.0000
vt 0.2782 0.5070 0.0000
vt 0.2628 0.5070 0.0000
vt 0.2628 0.4296 0.0000
vt 0.2771 0.5109 0.0000
vt 0.2632 0.5109 0.0000
vt 0.2633 0.4250 0.0000
vt 0.0868 0.2147 0.0000
vt 0.5349 0.2939 0.0000
vt 0.5350 0.2147 0.0000
vt 0.8744 0.1644 0.0000
vt 0.6093 0.1173 0.0000
vt 0.1837 0.7581 0.0000
vt 0.0869 0.2088 0.0000
vt 0.0867 0.1296 0.0000
vt 0.4039 0.4260 0.0000
vt 0.8292 0.6353 0.0000
vt 0.6376 0.4260 0.0000
vt 0.3236 0.5051 0.0000
vt 0.2134 0.4312 0.0000
vt 0.4163 0.3445 0.0000
vt 0.4072 0.3685 0.0000
vt 0.1933 0.4155 0.0000
vt 0.9078 0.3683 0.0000
vt 0.5189 0.3500 0.0000
vt 0.6122 0.3687 0.0000
vt 0.0849 0.4339 0.0000
vt 0.1280 0.3972 0.0000
vt 0.7315 0.2865 0.0000
vt 0.7247 0.2976 0.0000
vt 0.7311 0.2911 0.0000
vt 0.7583 0.2976 0.0000
vt 0.7515 0.2865 0.0000
vt 0.7519 0.2911 0.0000
vt 0.7246 0.3076 0.0000
vt 0.7583 0.3076 0.0000
vt 0.7310 0.3136 0.0000
vt 0.1991 0.4339 0.0000
vt 0.0128 0.0290 0.0000
vt 0.7307 0.2281 0.0000
vt 0.7240 0.2392 0.0000
vt 0.7304 0.2327 0.0000
vt 0.7575 0.2392 0.0000
vt 0.7508 0.2281 0.0000
vt 0.7511 0.2327 0.0000
vt 0.6326 0.2281 0.0000
vt 0.7239 0.2492 0.0000
vt 0.7576 0.2492 0.0000
vt 0.7303 0.2552 0.0000
vt 0.9127 0.9720 0.0000
vt 0.2141 0.4312 0.0000
vt 0.1457 0.3386 0.0000
vt 0.1753 0.3567 0.0000
vt 0.1400 0.3921 0.0000
vt 0.7423 0.3683 0.0000
vt 0.5164 0.3500 0.0000
vt 0.0849 0.3972 0.0000
vt 0.1321 0.7141 0.0000
vt 0.1459 0.7277 0.0000
vt 0.1321 0.7732 0.0000
vt 0.1459 0.9100 0.0000
vt 0.1459 0.7596 0.0000
vt 0.1112 0.7140 0.0000
vt 0.1112 0.7733 0.0000
vt 0.0986 0.7276 0.0000
vt 0.2782 0.4296 0.0000
vt 0.2772 0.4250 0.0000
vt 0.0865 0.2940 0.0000
vt 0.8745 0.1173 0.0000
vt 0.2172 0.7125 0.0000
vt 0.2309 0.7261 0.0000
vt 0.2172 0.7716 0.0000
vt 0.2309 0.7580 0.0000
vt 0.1963 0.7124 0.0000
vt 0.1963 0.7717 0.0000
vt 0.1837 0.7260 0.0000
vt 0.8286 0.8914 0.0000
vt 0.4035 0.8915 0.0000
vt 0.7674 0.2281 0.0000
vt 0.6517 0.2278 0.0000
vt 0.7473 0.2281 0.0000
vt 0.8287 0.4260 0.0000
vt 0.4021 0.4260 0.0000
vt 0.6357 0.4260 0.0000
vt 0.5922 0.4260 0.0000
vt 0.9116 0.1093 0.0000
vt 0.9124 0.9204 0.0000
vt 0.9277 0.9342 0.0000
vt 0.9277 0.0957 0.0000
vt 0.9124 0.9256 0.0000
vt 0.0727 0.9253 0.0000
vt 0.0577 0.9390 0.0000
vt 0.9277 0.9394 0.0000
vt 0.0577 0.9338 0.0000
vt 0.0727 0.9201 0.0000
vt 0.0715 0.5513 0.0000
vt 0.0561 0.5513 0.0000
vt 0.0577 0.0955 0.0000
vt 0.0561 0.4740 0.0000
vt 0.0715 0.4740 0.0000
vt 0.0724 0.1093 0.0000
vt 0.5359 0.0953 0.0000
vt 0.5359 0.1092 0.0000
vt 0.4500 0.1092 0.0000
vt 0.4500 0.0953 0.0000
# 257 texture coords

g Room2
f 1/1/1 2/2/1 3/3/1 
f 4/4/1 5/5/1 6/6/1 
f 7/7/1 8/8/1 5/5/1 
f 9/9/1 8/8/1 7/7/1 
f 10/10/2 11/11/2 12/12/2 
f 13/13/1 14/14/1 15/15/1 
f 1/1/1 13/13/1 16/16/1 
f 3/3/1 9/9/1 17/17/1 
f 7/18/3 4/19/3 18/20/3 
f 19/21/4 1/22/4 20/23/4 
f 4/19/5 11/24/5 10/25/5 
f 17/26/6 7/27/6 21/28/6 
f 17/26/7 22/29/7 23/30/7 
f 24/31/8 14/32/8 13/33/8 
f 25/34/9 13/35/9 1/22/9 
f 8/36/10 26/37/10 27/38/10 
f 3/39/11 2/40/11 28/41/11 
f 9/42/12 29/43/12 26/44/12 
f 16/45/13 15/46/13 30/47/13 
f 2/40/14 16/48/14 31/49/14 
f 5/50/15 27/38/15 12/12/15 
f 29/51/16 32/52/16 33/53/16 
f 34/54/17 29/43/17 9/42/17 
f 15/55/18 14/56/18 35/57/18 
f 36/58/7 33/59/7 37/60/7 
f 38/61/19 33/53/19 39/62/19 
f 32/63/7 40/64/7 41/65/7 
f 42/66/20 41/67/20 40/68/20 
f 43/69/21 44/70/21 32/52/21 
f 45/71/22 39/72/22 46/73/22 
f 47/74/23 36/75/23 37/76/23 
f 48/77/7 49/78/7 46/79/7 
f 50/80/24 46/73/24 49/81/24 
f 51/82/7 52/83/7 53/84/7 
f 54/85/25 51/86/25 53/87/25 
f 55/88/26 52/89/26 56/90/26 
f 57/91/27 58/92/27 59/93/27 
f 60/94/27 61/95/27 62/96/27 
f 51/82/7 44/97/7 56/98/7 
f 63/99/27 64/100/27 58/92/27 
f 65/101/27 64/100/27 63/99/27 
f 66/102/28 67/103/28 68/32/28 
f 69/104/27 70/105/27 71/106/27 
f 60/94/27 69/104/27 72/107/27 
f 65/101/27 73/108/27 74/109/27 
f 63/110/29 57/111/29 75/112/29 
f 76/113/30 60/114/30 74/115/30 
f 57/31/31 67/116/31 66/117/31 
f 73/118/32 63/110/32 77/119/32 
f 78/30/7 79/120/7 74/115/7 
f 80/121/33 70/122/33 69/123/33 
f 81/124/34 69/123/34 60/125/34 
f 64/126/35 82/127/35 83/128/35 
f 62/129/36 61/130/36 84/131/36 
f 65/132/37 45/133/37 82/127/37 
f 72/134/38 71/135/38 85/136/38 
f 61/137/39 72/134/39 86/138/39 
f 58/139/40 83/140/40 68/47/40 
f 87/141/17 45/142/17 65/143/17 
f 71/135/41 70/144/41 88/145/41 
f 79/146/42 48/147/42 36/148/42 
f 89/149/43 90/150/43 48/147/43 
f 36/58/7 46/79/7 39/151/7 
f 49/152/44 55/88/44 50/153/44 
f 66/154/7 91/155/7 88/156/7 
f 35/157/7 24/158/7 10/159/7 
f 42/160/45 51/161/45 54/162/45 
f 44/163/46 55/164/46 56/90/46 
f 23/165/1 37/76/1 41/67/1 
f 41/65/7 33/59/7 32/63/7 
f 49/78/7 53/84/7 52/83/7 
f 89/166/47 53/87/47 90/167/47 
f 42/168/7 80/169/7 10/170/7 
f 20/171/1 1/1/1 3/3/1 
f 11/172/1 4/4/1 6/6/1 
f 4/4/1 7/7/1 5/5/1 
f 17/17/1 9/9/1 7/7/1 
f 12/12/2 92/173/2 10/10/2 
f 11/11/2 6/174/2 12/12/2 
f 16/16/1 13/13/1 15/15/1 
f 2/2/1 1/1/1 16/16/1 
f 20/171/1 3/3/1 17/17/1 
f 21/175/3 7/18/3 18/20/3 
f 23/176/4 19/21/4 20/23/4 
f 18/20/5 4/19/5 10/25/5 
f 22/29/6 17/26/6 21/28/6 
f 20/177/7 17/26/7 23/30/7 
f 25/116/8 24/31/8 13/33/8 
f 19/21/9 25/34/9 1/22/9 
f 5/50/10 8/36/10 27/38/10 
f 34/178/11 3/39/11 28/41/11 
f 8/179/12 9/42/12 26/44/12 
f 31/180/13 16/45/13 30/47/13 
f 28/41/14 2/40/14 31/49/14 
f 6/174/15 5/50/15 12/12/15 
f 35/181/48 31/182/48 30/183/48 
f 27/184/49 92/185/49 12/186/49 
f 43/69/50 31/182/50 35/181/50 
f 27/184/51 38/61/51 92/185/51 
f 43/69/52 28/187/52 31/182/52 
f 26/188/53 38/61/53 27/184/53 
f 43/69/54 34/189/54 28/187/54 
f 29/51/55 38/61/55 26/188/55 
f 32/52/56 34/189/56 43/69/56 
f 29/51/57 33/53/57 38/61/57 
f 32/52/16 29/51/16 34/189/16 
f 3/190/17 34/54/17 9/42/17 
f 35/57/18 30/103/18 15/55/18 
f 14/191/58 24/191/58 35/191/58 
f 39/151/7 33/59/7 36/58/7 
f 44/97/7 40/64/7 32/63/7 
f 88/192/59 86/193/59 85/194/59 
f 83/195/60 91/196/60 68/197/60 
f 38/198/61 86/193/61 88/192/61 
f 83/195/62 50/80/62 91/196/62 
f 38/198/63 84/199/63 86/193/63 
f 82/200/64 50/80/64 83/195/64 
f 38/198/65 87/201/65 84/199/65 
f 45/71/66 50/80/66 82/200/66 
f 39/72/67 87/201/67 38/198/67 
f 45/71/68 46/73/68 50/80/68 
f 39/72/22 45/71/22 87/201/22 
f 90/202/7 49/78/7 48/77/7 
f 56/98/7 52/83/7 51/82/7 
f 67/203/27 57/91/27 59/93/27 
f 74/109/27 60/94/27 62/96/27 
f 40/64/7 44/97/7 51/82/7 
f 57/91/27 63/99/27 58/92/27 
f 73/108/27 65/101/27 63/99/27 
f 68/32/28 91/204/28 66/102/28 
f 67/103/28 59/205/28 68/32/28 
f 72/107/27 69/104/27 71/106/27 
f 61/95/27 60/94/27 72/107/27 
f 62/96/27 65/101/27 74/109/27 
f 77/119/29 63/110/29 75/112/29 
f 79/120/30 76/113/30 74/115/30 
f 75/206/31 57/31/31 66/117/31 
f 78/207/32 73/118/32 77/119/32 
f 73/208/7 78/30/7 74/115/7 
f 81/124/33 80/121/33 69/123/33 
f 76/209/34 81/124/34 60/125/34 
f 58/48/35 64/126/35 83/128/35 
f 87/141/36 62/129/36 84/131/36 
f 64/126/37 65/132/37 82/127/37 
f 86/138/38 72/134/38 85/136/38 
f 84/37/39 61/137/39 86/138/39 
f 59/46/40 58/139/40 68/47/40 
f 62/129/17 87/141/17 65/143/17 
f 88/145/41 85/136/41 71/135/41 
f 70/191/58 80/191/58 88/191/58 
f 89/149/69 75/210/69 66/211/69 
f 81/212/70 47/213/70 80/214/70 
f 89/149/71 77/215/71 75/210/71 
f 76/216/72 47/213/72 81/212/72 
f 89/149/73 78/217/73 77/215/73 
f 79/146/74 47/213/74 76/216/74 
f 48/147/75 78/217/75 89/149/75 
f 79/146/76 36/148/76 47/213/76 
f 48/147/77 79/146/77 78/217/77 
f 48/77/7 46/79/7 36/58/7 
f 52/89/78 55/88/78 49/152/78 
f 80/218/7 66/154/7 88/156/7 
f 92/219/7 35/157/7 10/159/7 
f 40/220/79 51/161/79 42/160/79 
f 43/221/46 55/164/46 44/163/46 
f 47/74/80 18/222/80 10/223/80 
f 25/224/81 42/66/81 24/225/81 
f 47/74/82 21/226/82 18/222/82 
f 19/227/83 42/66/83 25/224/83 
f 47/74/84 22/228/84 21/226/84 
f 23/165/85 42/66/85 19/227/85 
f 37/76/86 22/228/86 47/74/86 
f 23/165/87 41/67/87 42/66/87 
f 37/76/1 23/165/1 22/228/1 
f 37/60/7 33/59/7 41/65/7 
f 90/202/7 53/84/7 49/78/7 
f 54/85/88 53/87/88 89/166/88 
f 89/229/7 42/168/7 54/230/7 
f 80/231/7 89/232/7 66/233/7 
f 10/170/7 80/169/7 47/234/7 
f 42/235/7 10/236/7 24/237/7 
f 80/169/7 42/168/7 89/229/7 
f 42/238/17 54/239/17 55/240/17 
f 42/238/17 55/240/17 43/241/17 
f 54/242/17 89/243/17 50/244/17 
f 54/242/17 50/244/17 55/245/17 
f 50/246/17 89/247/17 66/248/17 
f 50/246/17 66/248/17 91/249/17 
f 38/250/17 88/251/17 80/252/17 
f 38/250/17 80/252/17 47/253/17 
f 43/241/17 35/254/17 24/255/17 
f 43/241/17 24/255/17 42/238/17 
f 47/253/17 10/256/17 92/257/17 
f 47/253/17 92/257/17 38/250/17 
# 194 faces

